<svg xmlns="http://www.w3.org/2000/svg" width="200" height="200" class="icon" viewBox="0 0 1024 1024"><path fill="#FFCB01" d="M640 700.16c141.376 0 251.52-78.784 251.52-220.16 0-48.192 23.168-93.248 0-131.744A256 256 0 1 0 560.192 710.4c33.824 16.416 39.744-10.24 79.84-10.24zM320 640 160 777.024v66.72l42.336 25.856 102.368-26.752L416 713.568z"/><path fill="#1C412F" d="M131.84 842.048a96.03 96.03 0 0 1 18.784-109.28L286.4 597.024l-45.248-45.248a32 32 0 0 1 45.248-45.28l14.4 14.4a320 320 0 0 1 76.096-331.2c124.96-124.928 327.584-124.928 452.544 0 124.992 124.992 124.992 327.616 0 452.576A320 320 0 0 1 498.272 718.4l14.4 14.4a32 32 0 0 1-45.248 45.248l-45.28-45.28L286.4 868.544a96.03 96.03 0 0 1-109.28 18.784l-26.496 26.464a32 32 0 1 1-45.248-45.248l26.496-26.496zm290.304-245.024a256 256 0 1 0 362.048-362.048 256 256 0 0 0-362.048 362.048m251.712-360.032a32 32 0 0 1-23.776 59.424c-31.296-12.544-64.192-12.768-93.856-.512a32 32 0 1 1-24.416-59.168c45.344-18.72 95.52-18.368 142.08.256zM309.024 664.896 195.84 778.048a32 32 0 0 0 45.28 45.248l113.12-113.152-45.248-45.248z"/></svg>